<svg t="1750517484554" class="icon" viewBox="0 0 1024 1024" version="1.1" xmlns="http://www.w3.org/2000/svg" p-id="13123" width="200" height="200"><path d="M116 879.904a381.336 81.488 0 1 0 762.672 0 381.336 81.488 0 1 0-762.672 0Z" fill="#B8CBCD" p-id="13124"></path><path d="M809.952 171.44c-92.168-92.16-241.584-92.16-333.752 0-64.632 64.64-83.872 157.416-57.848 238.872L108 721.4l8 160 148.072-0.016 27.928-23.984v-72h64l48-40v-72h64l48.168-44.12 41.64-41.64 21.984-21.984c79.296 21.992 167.832 1.88 230.168-60.456 92.16-92.168 92.16-241.592-0.008-333.76zM640.6 339.824a67.04 67.04 0 1 1 94.8-94.792 67.04 67.04 0 0 1-94.8 94.792z" fill="#F7BB83" p-id="13125"></path><path d="M124 769.4a23.992 23.992 0 0 1-16.76-41.168L425.36 417.584a259.072 259.072 0 0 1 67.912-248.696C594.64 67.504 742.624 74.096 844 175.456a24 24 0 1 1-33.936 33.944c-82.672-82.656-200.192-89.232-282.848-6.576-56.328 56.344-76.24 138.568-51.96 214.608a24.008 24.008 0 0 1-6.096 24.472L140.768 762.568a23.92 23.92 0 0 1-16.768 6.832z" fill="#FFFFFF" p-id="13126"></path><path d="M227.992 897.4a24.008 24.008 0 0 1-17.84-40.048l29.784-33.136v-62.8a24 24 0 0 1 24-24h55.312l32.688-27.24v-60.76a24 24 0 0 1 24-24h54.672l40.896-37.464 75.528-75.528a24.016 24.016 0 0 1 23.384-6.16c80.304 22.28 143.944 8.536 194.488-42.016 40.048-40.04 62.104-93.28 62.104-149.912s-22.056-109.864-62.104-149.904a24 24 0 1 1 33.936-33.944c49.112 49.112 76.168 114.4 76.168 183.856 0 69.448-27.056 134.744-76.168 183.848-59.992 60-136.504 79.44-227.552 57.856l-66.224 66.216a21.608 21.608 0 0 1-0.76 0.728l-48.168 44.12a24.024 24.024 0 0 1-16.208 6.304h-40v48c0 7.12-3.168 13.88-8.64 18.44l-48 40a24.008 24.008 0 0 1-15.36 5.56h-40v48c0 5.92-2.192 11.64-6.152 16.04l-35.928 39.984a23.936 23.936 0 0 1-17.856 7.96z" fill="#6E4123" p-id="13127"></path><path d="M108 905.4a24.032 24.032 0 0 1-24.008-24v-160c0-6.352 2.52-12.448 7.008-16.952L391.36 403.376a259.072 259.072 0 0 1 67.856-248.904c49.112-49.112 114.408-76.16 183.856-76.16s134.736 27.048 183.84 76.16c101.376 101.376 101.376 266.32 0 367.696-49.072 49.072-114.328 76.104-183.76 76.104h-0.008c-18.952 0-37.824-2.056-56.264-6.128L484.656 690.68a24.04 24.04 0 0 1-16.656 6.72h-40v48c0 7.12-3.168 13.88-8.64 18.44l-48 40a24.008 24.008 0 0 1-15.36 5.56h-40v48a24 24 0 0 1-8.368 18.208l-27.928 23.976a24 24 0 0 1-15.632 5.792l-156.072 0.024z m24-174.08v126.072l123.176-0.016 12.824-11.008v-60.976a24 24 0 0 1 24-24h55.312l32.688-27.24v-60.76a24 24 0 0 1 24-24h54.32l104.816-101.024a23.96 23.96 0 0 1 23.072-5.848c18.512 5.136 37.68 7.744 56.952 7.744 56.608 0 109.824-22.032 149.832-62.04 82.656-82.664 82.656-217.16 0-299.824-40.048-40.04-93.28-62.096-149.904-62.096-56.624 0-109.864 22.056-149.912 62.096-56.336 56.336-76.24 138.568-51.96 214.6a24 24 0 0 1-5.872 24.248L132 731.32zM688 383.456a90.456 90.456 0 0 1-64.368-26.664 90.432 90.432 0 0 1-26.664-64.368c0-24.312 9.472-47.176 26.664-64.368 17.192-17.192 40.056-26.664 64.368-26.664s47.168 9.472 64.368 26.664a90.448 90.448 0 0 1 26.664 64.368c0 24.32-9.472 47.176-26.664 64.368A90.424 90.424 0 0 1 688 383.456z m0-134.056c-11.496 0-22.296 4.48-30.432 12.608a42.744 42.744 0 0 0-12.6 30.424c0 11.496 4.48 22.304 12.6 30.424 8.136 8.128 18.936 12.608 30.432 12.608s22.296-4.48 30.432-12.608a42.736 42.736 0 0 0 12.6-30.424c0-11.496-4.48-22.304-12.6-30.432A42.768 42.768 0 0 0 688 249.4z" fill="#6E4123" p-id="13128"></path></svg>