<svg t="1750517604123" class="icon" viewBox="0 0 1024 1024" version="1.1" xmlns="http://www.w3.org/2000/svg" p-id="18093" width="200" height="200"><path d="M491.498667 106.666667c216 0 396.330667 126.464 439.189333 294.933333a191.573333 191.573333 0 0 0-79.957333-17.258667c-102.848 0-186.197333 80.213333-186.197334 179.242667 0 46.144 18.069333 88.192 47.829334 119.936-48.149333 10.794667-82.218667 52.138667-82.261334 99.733333v49.322667c-45.226667 12.074667-91.818667 18.133333-138.602666 18.069333a522.773333 522.773333 0 0 1-206.570667-41.621333l-76.757333 81.408a26.304 26.304 0 0 1-45.504-18.133333v-140.48C88.213333 665.472 42.666667 576.469333 42.666667 478.677333 42.666667 273.194667 243.584 106.666667 491.498667 106.666667z m131.797333 419.989333H309.781333a5.290667 5.290667 0 0 0-5.226666 4.202667l-0.064 0.917333v66.858667l77.632 65.429333 1.237333 0.917333a13.738667 13.738667 0 0 0 18.218667-2.944 12.906667 12.906667 0 0 0 2.538666-6.058666l0.106667-1.557334v-55.744h219.093333a5.269333 5.269333 0 0 0 5.205334-4.202666l0.106666-0.917334v-61.781333a4.714667 4.714667 0 0 0-1.6-3.626667 5.397333 5.397333 0 0 0-3.733333-1.493333z m-90.56-225.6h-0.064a13.482667 13.482667 0 0 0-3.221333 7.232l-0.064 1.6v58.666667H310.037333a5.290667 5.290667 0 0 0-5.226666 4.202666l-0.042667 0.917334v61.824a5.12 5.12 0 0 0 4.309333 5.013333l0.96 0.106667h313.856a5.290667 5.290667 0 0 0 5.226667-4.202667l0.106667-0.917333v-66.944l-77.738667-68.736-1.237333-0.981334a13.205333 13.205333 0 0 0-17.557334 2.218667h0.042667z" fill="#34C724" p-id="18094"></path><path d="M742.613333 571.541333a104.96 104.96 0 1 0 209.92-0.106666 104.96 104.96 0 0 0-209.92 0.106666z m56.597334 166.101334h98.133333A105.386667 105.386667 0 0 1 1002.666667 843.072v52.736H693.888v-52.736a105.386667 105.386667 0 0 1 105.322667-105.429333z" fill="#8EE085" p-id="18095"></path></svg>